<?xml version="1.0" encoding="utf-8"?>
<svg xmlns="http://www.w3.org/2000/svg" viewBox="0 0 24 24" width="96" height="96">
  <path d="M12 3C10.75 3 9.6852256 3.5047556 9.0019531 4.2734375C8.3186806 5.0421194 8 6.0277779 8 7C8 7.9722221 8.3186806 8.9578806 9.0019531 9.7265625C9.6852256 10.495244 10.75 11 12 11C13.25 11 14.314774 10.495244 14.998047 9.7265625C15.681319 8.9578806 16 7.9722221 16 7C16 6.0277779 15.681319 5.0421194 14.998047 4.2734375C14.314774 3.5047556 13.25 3 12 3 z M 12 5C12.749999 5 13.185226 5.2452444 13.501953 5.6015625C13.81868 5.9578806 14 6.4722221 14 7C14 7.5277779 13.81868 8.0421194 13.501953 8.3984375C13.185226 8.7547556 12.749999 9 12 9C11.250001 9 10.814774 8.7547556 10.498047 8.3984375C10.18132 8.0421194 10 7.5277779 10 7C10 6.4722221 10.18132 5.9578806 10.498047 5.6015625C10.814774 5.2452444 11.250001 5 12 5 z M 16 12C14.906937 12 14 12.906937 14 14L12 14C10.255047 14 8.1871638 14.409783 6.4492188 15.095703C5.5802462 15.438663 4.7946961 15.84605 4.1660156 16.369141C3.5373351 16.892231 3 17.599384 3 18.5L3 21L14 21L14 22C14 23.093063 14.906937 24 16 24L22 24C23.093063 24 24 23.093063 24 22L24 15.585938L20.414062 12L16 12 z M 16 14L19 14L19 17L22 17L22 22L16 22L16 14 z M 12 16L14 16L14 19L5 19L5 18.5C5 18.434616 5.0675867 18.220535 5.4453125 17.90625C5.8230383 17.591965 6.4454882 17.245618 7.1816406 16.955078C8.6539455 16.373999 10.585953 16 12 16 z" fill="#004A9F" />
</svg>