<?xml version="1.0" encoding="utf-8"?>
<svg xmlns="http://www.w3.org/2000/svg" viewBox="0 0 24 24" width="96" height="96">
  <path d="M2 3L2 21L12 21L22 21L22 7L12 7L12 3L2 3 z M 4 5L6 5L6 7L4 7L4 5 z M 8 5L10 5L10 7L8 7L8 5 z M 4 9L6 9L6 11L4 11L4 9 z M 8 9L10 9L10 11L8 11L8 9 z M 12 9L20 9L20 19L12 19L12 17L14 17L14 15L12 15L12 13L14 13L14 11L12 11L12 9 z M 16 11L16 13L18 13L18 11L16 11 z M 4 13L6 13L6 15L4 15L4 13 z M 8 13L10 13L10 15L8 15L8 13 z M 16 15L16 17L18 17L18 15L16 15 z M 4 17L6 17L6 19L4 19L4 17 z M 8 17L10 17L10 19L8 19L8 17 z" fill="#004A9F" />
</svg>