<?xml version="1.0" encoding="utf-8"?>
<svg xmlns="http://www.w3.org/2000/svg" viewBox="0 0 24 24" width="96" height="96">
  <path d="M12 2C6.477 2 2 6.477 2 12C2 17.523 6.477 22 12 22C17.523 22 22 17.523 22 12C22 10.313 21.577844 8.7240781 20.839844 7.3300781L19.34375 8.828125C19.76475 9.801125 20 10.872 20 12C20 16.418 16.418 20 12 20C7.582 20 4 16.418 4 12C4 7.582 7.582 4 12 4C13.848105 4 15.543163 4.6354358 16.896484 5.6894531L15.46875 7.1171875C14.489493 6.4175694 13.296093 6 12 6C8.686 6 6 8.686 6 12C6 15.314 8.686 18 12 18C15.314 18 18 15.314 18 12C18 11.443 17.917391 10.905531 17.775391 10.394531L15.980469 12.189453C15.878469 14.308453 14.144 16 12 16C9.791 16 8 14.209 8 12C8 9.791 9.791 8 12 8C12.742152 8 13.432775 8.2065691 14.025391 8.5605469L12.515625 10.070312 A 2 2 0 0 0 12 10 A 2 2 0 0 0 10 12 A 2 2 0 0 0 12 14 A 2 2 0 0 0 14 12 A 2 2 0 0 0 13.931641 11.482422L22 3.4140625L20.585938 2L18.322266 4.2636719C16.598132 2.8532535 14.400851 2 12 2 z" fill="#00000050" />
</svg>