<svg xmlns="http://www.w3.org/2000/svg" viewBox="0 0 24 24">
  <path d="M17 0C15.199219 0 13.394531 0.695313 12.09375 2.09375L2.09375 12.09375C0.125 14.0625 -0.367188 16.984375 0.53125 19.46875L0.5 19.5C0.523438 19.566406 0.570313 19.621094 0.59375 19.6875C0.675781 19.898438 0.761719 20.113281 0.875 20.3125C0.960938 20.46875 1.054688 20.632813 1.15625 20.78125C1.425781 21.210938 1.722656 21.628906 2.09375 22C3.394531 23.300781 5.199219 24 7 24C8.152344 24 9.292969 23.699219 10.3125 23.125C10.460938 23.046875 10.605469 22.964844 10.75 22.875C10.800781 22.839844 10.855469 22.816406 10.90625 22.78125C11.292969 22.527344 11.664063 22.242188 12 21.90625L18 15.90625L17.9375 15.875L21.90625 11.90625C24.605469 9.207031 24.605469 4.699219 21.90625 2C20.605469 0.699219 18.800781 0 17 0 Z M 17 2C18.300781 2 19.601563 2.5 20.5 3.5C22.398438 5.398438 22.398438 8.59375 20.5 10.59375L16.59375 14.5L11 8.90625L2.15625 17.84375C1.894531 16.292969 2.335938 14.632813 3.5 13.40625L13.5 3.40625C14.398438 2.507813 15.699219 2 17 2Z" fill="#004A9F" />
</svg>