<?xml version="1.0" encoding="utf-8"?>
<svg xmlns="http://www.w3.org/2000/svg" viewBox="0 0 24 24" width="96" height="96">
  <path d="M12 5C10.35499 5 9 6.3549904 9 8C9 9.6450096 10.35499 11 12 11C13.64501 11 15 9.6450096 15 8C15 6.3549904 13.64501 5 12 5 z M 5 7 A 2 2 0 0 0 3 9 A 2 2 0 0 0 5 11 A 2 2 0 0 0 7 9 A 2 2 0 0 0 5 7 z M 12 7C12.564129 7 13 7.4358706 13 8C13 8.5641294 12.564129 9 12 9C11.435871 9 11 8.5641294 11 8C11 7.4358706 11.435871 7 12 7 z M 19 7 A 2 2 0 0 0 17 9 A 2 2 0 0 0 19 11 A 2 2 0 0 0 21 9 A 2 2 0 0 0 19 7 z M 5 13C2.815 13 1 13.908797 1 15.216797L1 17L6 17L6 19L18 19L18 18L18 17L23 17L23 15.216797C23 13.908797 21.185 13 19 13C17.805298 13 16.733357 13.278135 15.996094 13.738281C15.969473 13.726403 15.946853 13.7108 15.919922 13.699219C14.834786 13.232561 13.476448 13 12 13C10.523552 13 9.1652139 13.232561 8.0800781 13.699219C8.0531468 13.7108 8.0305269 13.726403 8.0039062 13.738281C7.266643 13.278135 6.1947021 13 5 13 z M 12 15C13.254552 15 14.396792 15.222267 15.128906 15.537109C15.494963 15.694531 15.75147 15.875567 15.876953 16.007812C16.002436 16.14006 16 16.178915 16 16.216797L16 17L8 17L8 16.216797C8 16.178917 7.99756 16.140057 8.1230469 16.007812C8.2485299 15.875566 8.5050366 15.694531 8.8710938 15.537109C9.6032079 15.222267 10.745448 15 12 15 z" fill="#004A9F" />
</svg>