<?xml version="1.0" encoding="utf-8"?>
<svg xmlns="http://www.w3.org/2000/svg" viewBox="0 0 14 20" width="96" height="96">
  <path d="M3 0C1.3552972 0 0 1.3552972 0 3L0 17C0 18.644703 1.3552972 20 3 20L11 20C12.644703 20 14 18.644703 14 17L14 3C14 1.3552972 12.644703 0 11 0L3 0 z M 3 2L11 2C11.571297 2 12 2.4287028 12 3L12 17C12 17.571297 11.571297 18 11 18L3 18C2.4287028 18 2 17.571297 2 17L2 3C2 2.4287028 2.4287028 2 3 2 z M 5 4C4.446 4 4 4.446 4 5L4 7C4 7.554 4.446 8 5 8C5.554 8 6 7.554 6 7L6 5C6 4.446 5.554 4 5 4 z" fill="#FFFFFF" />
</svg>