<?xml version="1.0" encoding="utf-8"?>
<svg xmlns="http://www.w3.org/2000/svg" viewBox="0 0 24 24" width="480" height="480">
  <path d="M15 4.9726562C13.897 4.9726562 13 5.8696563 13 6.9726562L13 10.972656C13 12.075656 13.897 12.972656 15 12.972656L18.009766 12.972656L13.521484 19L16.015625 19L21 12.302734L21 11.972656L21 9.9726562L21 6.9726562C21 5.8696562 20.103 4.9726563 19 4.9726562L15 4.9726562 z M 5 5C3.897 5 3 5.897 3 7L3 11C3 12.103 3.897 13 5 13L8.0097656 13L3.5429688 19L6.0351562 19L11 12.330078L11 12L11 10L11 7C11 5.897 10.103 5 9 5L5 5 z" fill="#FFD565" />
</svg>