<svg xmlns="http://www.w3.org/2000/svg" viewBox="0 0 24 24">
  <path d="M0.625 4L1.0625 5.3125L1.8125 7.625C1.773438 7.726563 1.753906 7.832031 1.75 7.9375L0.25 9.65625L0 9.9375L0 13.09375C0 15.496094 1.113281 17.296875 2.34375 18.46875C1.539063 18.855469 0.625 19 0 19L0 21C1.699219 21 2.398438 20.59375 3 20.09375C3.898438 20.792969 5.199219 21 6 21C6.800781 21 8.101563 20.792969 9 20.09375C9.898438 20.792969 11.199219 21 12 21C12.800781 21 14.101563 20.792969 15 20.09375C15.898438 20.792969 17.199219 21 18 21C18.800781 21 20.101563 20.792969 21 20.09375C21.898438 20.792969 23.199219 21 24 21L24 19C23.199219 19 21.898438 18.792969 21 18.09375C20.613281 18.394531 20.152344 18.609375 19.6875 18.75C22.109375 17.019531 24 13.683594 24 10L21.40625 10L15.5 4.28125L15.21875 4L9.46875 4L9.3125 4.8125L8.875 7L7.25 7L5.53125 4.4375L5.25 4 Z M 11.125 6L14.375 6L15.40625 7L10.9375 7 Z M 3.46875 9L17.40625 9C17.4375 9 17.46875 9 17.5 9L18.53125 10L2.59375 10 Z M 3.5 12L17 12L16 14L4 14 Z M 3 21.09375C2.101563 21.792969 0.800781 22 0 22L0 24C1.699219 24 2.398438 23.59375 3 23.09375C3.898438 23.792969 5.199219 24 6 24C6.800781 24 8.101563 23.792969 9 23.09375C9.898438 23.792969 11.199219 24 12 24C12.800781 24 14.101563 23.792969 15 23.09375C15.898438 23.792969 17.199219 24 18 24C18.800781 24 20.101563 23.792969 21 23.09375C21.898438 23.792969 23.199219 24 24 24L24 22C23.199219 22 21.898438 21.792969 21 21.09375C20.101563 21.792969 18.800781 22 18 22C17.199219 22 15.898438 21.792969 15 21.09375C14.101563 21.792969 12.800781 22 12 22C11.199219 22 9.898438 21.792969 9 21.09375C8.101563 21.792969 6.800781 22 6 22C5.199219 22 3.898438 21.792969 3 21.09375Z" fill="#00000050" />
</svg>