<svg xmlns="http://www.w3.org/2000/svg" viewBox="0 0 24 24">
  <path d="M14 0L14 2C17.855469 2 21 5.144531 21 9L23 9C23 4.054688 18.945313 0 14 0 Z M 14 3L14 5C16.277344 5 18 6.722656 18 9L20 9C20 5.675781 17.324219 3 14 3 Z M 7.21875 4.03125C6.34375 4.023438 5.617188 4.289063 5.09375 4.8125C5.054688 4.851563 5.035156 4.894531 5 4.9375C5 4.921875 5 4.8125 5 4.8125C3.199219 6.613281 1.195313 12.007813 6.09375 16.90625C6.222656 17.035156 6.371094 17.128906 6.5 17.25L2 24L4 24L7.78125 18.3125C7.855469 18.363281 7.925781 18.421875 8 18.46875L8 24L10 24L10 19.46875C13.1875 20.621094 16.105469 19.601563 17.65625 18.4375C17.890625 18.320313 18.128906 18.183594 18.3125 18C19.613281 16.601563 19.09375 13.585938 17.09375 10.6875C16.792969 11.289063 16.195313 11.789063 15.59375 12.1875C16.992188 14.386719 17.210938 16.195313 16.8125 16.59375C16.3125 17.09375 13.210938 16.613281 9.8125 13.3125C6.511719 10.011719 6 6.914063 6.5 6.3125C6.898438 5.914063 8.605469 6 10.90625 7.5C11.207031 6.898438 11.707031 6.300781 12.40625 6C10.53125 4.75 8.671875 4.039063 7.21875 4.03125 Z M 14 7C13.066406 7 12.285156 7.636719 12.0625 8.5L8.3125 9.09375C8.613281 9.492188 8.789063 9.90625 9.1875 10.40625L12.25 9.9375C12.4375 10.285156 12.714844 10.5625 13.0625 10.75L12.59375 13.8125C12.992188 14.113281 13.507813 14.394531 13.90625 14.59375L14.40625 10.96875C15.316406 10.78125 16 9.964844 16 9C16 7.894531 15.105469 7 14 7Z" fill="#004A9F" />
</svg>