<?xml version="1.0" encoding="utf-8"?>
<svg xmlns="http://www.w3.org/2000/svg" viewBox="0 0 24 24" width="96" height="96">
  <path d="M9 1L9 3L15 3L15 1L9 1 z M 18.958984 2.7929688L17.666016 4.3183594L20.615234 6.8183594L21.908203 5.2929688L18.958984 2.7929688 z M 12 4C7.0225467 4 3 8.0225467 3 13C3 17.977453 7.0225467 22 12 22C16.977453 22 21 17.977453 21 13C21 8.0225467 16.977453 4 12 4 z M 12 6C15.910547 6 19 9.0894533 19 13C19 16.910547 15.910547 20 12 20C8.0894533 20 5 16.910547 5 13C5 9.0894533 8.0894533 6 12 6 z M 11 8L11 14L13 14L13 8L11 8 z" fill="#004A9F" />
</svg>