<?xml version="1.0" encoding="utf-8"?>
<svg xmlns="http://www.w3.org/2000/svg" viewBox="0 0 24 24" width="96" height="96">
  <path d="M11 2C6.582 2 3 5.582 3 10C3 15.004 6 14.429234 6 19.240234L6 22L15 22L15 19L17 19C18.105 19 19 18.105 19 17L19 14.021484L20.425781 13.419922C20.946781 13.200922 21.146797 12.564891 20.841797 12.087891L18.947266 9.1171875C18.509266 5.1141875 15.12 2 11 2 z M 11 4C14.064 4 16.626938 6.2948906 16.960938 9.3378906L17.011719 9.8007812L17.263672 10.193359L18.464844 12.076172L18.222656 12.177734L17 12.693359L17 17L13 17L13 20L8 20L8 19.240234C8 16.233234 6.9830156 14.764938 6.1660156 13.585938C5.4890156 12.607938 5 11.902 5 10C5 6.692 7.692 4 11 4 z M 11.136719 7.0019531C10.909041 6.9917129 10.673672 7.0075313 10.435547 7.0507812C9.2555469 7.2657812 8.2875938 8.2233906 8.0585938 9.4003906C7.7565938 10.959391 8.663 12.341406 10 12.816406L10 14.5C10 14.776 10.224 15 10.5 15L11.5 15C11.776 15 12 14.776 12 14.5L12 12.816406C13.163 12.403406 14 11.304 14 10C14 8.389125 12.730463 7.0736348 11.136719 7.0019531 z M 6.5 8 A 0.5 0.5 0 0 0 6 8.5 A 0.5 0.5 0 0 0 6.5 9 A 0.5 0.5 0 0 0 7 8.5 A 0.5 0.5 0 0 0 6.5 8 z M 15.5 8 A 0.5 0.5 0 0 0 15 8.5 A 0.5 0.5 0 0 0 15.5 9 A 0.5 0.5 0 0 0 16 8.5 A 0.5 0.5 0 0 0 15.5 8 z M 11 9C11.552 9 12 9.448 12 10C12 10.552 11.552 11 11 11C10.448 11 10 10.552 10 10C10 9.448 10.448 9 11 9 z M 6.5 11 A 0.5 0.5 0 0 0 6 11.5 A 0.5 0.5 0 0 0 6.5 12 A 0.5 0.5 0 0 0 7 11.5 A 0.5 0.5 0 0 0 6.5 11 z M 15.5 11 A 0.5 0.5 0 0 0 15 11.5 A 0.5 0.5 0 0 0 15.5 12 A 0.5 0.5 0 0 0 16 11.5 A 0.5 0.5 0 0 0 15.5 11 z" fill="#00000050" />
</svg>